{
	"asset":{
		"generator":"Khronos glTF Blender I/O v4.5.48",
		"version":"2.0"
	},
	"scene":0,
	"scenes":[
		{
			"name":"Scene",
			"nodes":[
				0,
				1,
				2
			]
		}
	],
	"nodes":[
		{
			"mesh":0,
			"name":"Z"
		},
		{
			"mesh":1,
			"name":"Y"
		},
		{
			"mesh":2,
			"name":"X"
		}
	],
	"meshes":[
		{
			"name":"Z",
			"primitives":[
				{
					"attributes":{
						"POSITION":0,
						"NORMAL":1,
						"TEXCOORD_0":2,
						"COLOR_0":3
					},
					"indices":4
				}
			]
		},
		{
			"name":"Y",
			"primitives":[
				{
					"attributes":{
						"POSITION":5,
						"NORMAL":6,
						"TEXCOORD_0":7,
						"COLOR_0":8
					},
					"indices":9
				}
			]
		},
		{
			"name":"X",
			"primitives":[
				{
					"attributes":{
						"POSITION":10,
						"NORMAL":11,
						"TEXCOORD_0":12,
						"COLOR_0":13
					},
					"indices":14
				}
			]
		}
	],
	"accessors":[
		{
			"bufferView":0,
			"componentType":5126,
			"count":320,
			"max":[
				0.4900740385055542,
				0.49373963475227356,
				7.0514326095581055
			],
			"min":[
				-0.5099257230758667,
				-0.506260097026825,
				-1.7881392011531716e-07
			],
			"type":"VEC3"
		},
		{
			"bufferView":1,
			"componentType":5126,
			"count":320,
			"type":"VEC3"
		},
		{
			"bufferView":2,
			"componentType":5126,
			"count":320,
			"type":"VEC2"
		},
		{
			"bufferView":3,
			"componentType":5123,
			"count":320,
			"normalized":true,
			"type":"VEC4"
		},
		{
			"bufferView":4,
			"componentType":5123,
			"count":558,
			"type":"SCALAR"
		},
		{
			"bufferView":5,
			"componentType":5126,
			"count":320,
			"max":[
				0.5099248290061951,
				7.0514326095581055,
				0.49373936653137207
			],
			"min":[
				-0.49007493257522583,
				-2.1803256800012605e-07,
				-0.506260335445404
			],
			"type":"VEC3"
		},
		{
			"bufferView":6,
			"componentType":5126,
			"count":320,
			"type":"VEC3"
		},
		{
			"bufferView":7,
			"componentType":5126,
			"count":320,
			"type":"VEC2"
		},
		{
			"bufferView":8,
			"componentType":5123,
			"count":320,
			"normalized":true,
			"type":"VEC4"
		},
		{
			"bufferView":9,
			"componentType":5123,
			"count":558,
			"type":"SCALAR"
		},
		{
			"bufferView":10,
			"componentType":5126,
			"count":320,
			"max":[
				7.0514326095581055,
				0.5062609910964966,
				0.4900737702846527
			],
			"min":[
				-2.1803256800012605e-07,
				-0.49373874068260193,
				-0.5099259614944458
			],
			"type":"VEC3"
		},
		{
			"bufferView":11,
			"componentType":5126,
			"count":320,
			"type":"VEC3"
		},
		{
			"bufferView":12,
			"componentType":5126,
			"count":320,
			"type":"VEC2"
		},
		{
			"bufferView":13,
			"componentType":5123,
			"count":320,
			"normalized":true,
			"type":"VEC4"
		},
		{
			"bufferView":14,
			"componentType":5123,
			"count":558,
			"type":"SCALAR"
		}
	],
	"bufferViews":[
		{
			"buffer":0,
			"byteLength":3840,
			"byteOffset":0,
			"target":34962
		},
		{
			"buffer":0,
			"byteLength":3840,
			"byteOffset":3840,
			"target":34962
		},
		{
			"buffer":0,
			"byteLength":2560,
			"byteOffset":7680,
			"target":34962
		},
		{
			"buffer":0,
			"byteLength":2560,
			"byteOffset":10240,
			"target":34962
		},
		{
			"buffer":0,
			"byteLength":1116,
			"byteOffset":12800,
			"target":34963
		},
		{
			"buffer":0,
			"byteLength":3840,
			"byteOffset":13916,
			"target":34962
		},
		{
			"buffer":0,
			"byteLength":3840,
			"byteOffset":17756,
			"target":34962
		},
		{
			"buffer":0,
			"byteLength":2560,
			"byteOffset":21596,
			"target":34962
		},
		{
			"buffer":0,
			"byteLength":2560,
			"byteOffset":24156,
			"target":34962
		},
		{
			"buffer":0,
			"byteLength":1116,
			"byteOffset":26716,
			"target":34963
		},
		{
			"buffer":0,
			"byteLength":3840,
			"byteOffset":27832,
			"target":34962
		},
		{
			"buffer":0,
			"byteLength":3840,
			"byteOffset":31672,
			"target":34962
		},
		{
			"buffer":0,
			"byteLength":2560,
			"byteOffset":35512,
			"target":34962
		},
		{
			"buffer":0,
			"byteLength":2560,
			"byteOffset":38072,
			"target":34962
		},
		{
			"buffer":0,
			"byteLength":1116,
			"byteOffset":40632,
			"target":34963
		}
	],
	"buffers":[
		{
			"byteLength":41748,
			"uri":"axis.bin"
		}
	]
}
