{
	"asset":{
		"generator":"Khronos glTF Blender I/O v4.5.49",
		"version":"2.0"
	},
	"scene":0,
	"scenes":[
		{
			"name":"Scene",
			"nodes":[
				0
			]
		}
	],
	"nodes":[
		{
			"mesh":0,
			"name":"Grid",
			"rotation":[
				0.7071068286895752,
				0,
				0,
				0.7071068286895752
			]
		}
	],
	"meshes":[
		{
			"name":"Grid",
			"primitives":[
				{
					"attributes":{
						"POSITION":0,
						"NORMAL":1,
						"TEXCOORD_0":2
					},
					"indices":3
				}
			]
		}
	],
	"accessors":[
		{
			"bufferView":0,
			"componentType":5126,
			"count":160000,
			"max":[
				10,
				10,
				-0.12407500296831131
			],
			"min":[
				-10,
				-10,
				-4.103797912597656
			],
			"type":"VEC3"
		},
		{
			"bufferView":1,
			"componentType":5126,
			"count":160000,
			"type":"VEC3"
		},
		{
			"bufferView":2,
			"componentType":5126,
			"count":160000,
			"type":"VEC2"
		},
		{
			"bufferView":3,
			"componentType":5125,
			"count":955206,
			"type":"SCALAR"
		}
	],
	"bufferViews":[
		{
			"buffer":0,
			"byteLength":1920000,
			"byteOffset":0,
			"target":34962
		},
		{
			"buffer":0,
			"byteLength":1920000,
			"byteOffset":1920000,
			"target":34962
		},
		{
			"buffer":0,
			"byteLength":1280000,
			"byteOffset":3840000,
			"target":34962
		},
		{
			"buffer":0,
			"byteLength":3820824,
			"byteOffset":5120000,
			"target":34963
		}
	],
	"buffers":[
		{
			"byteLength":8940824,
			"uri":"Terrain.bin"
		}
	]
}
